# xmcd
#
# Track frame offsets:
#	150
#	12201
#	35240
#	51744
#	63287
#	81911
#	95580
#	105870
#	122026
#	135447
#	155306
#	168490
#	181132
#	196250
#
# Disc length: 2814 seconds
#
# Revision: 0
# Processed by: cddbd v1.5.2PL0 Copyright (c) Steve Scherf et al.
# Submitted via: audiograbber 1.83.01
#
DISCID=b50afc0e
DTITLE=Diverse - Alte Hirten- und Krippenlieder
DYEAR=1968
DGENRE=Advent
TTITLE0=Vorspiel (Viktor Zack)
TTITLE1=Das Herbergsuchen
TTITLE2=Einmal war ich im Feld
TTITLE3=Steht's auf, liabe Buama
TTITLE4=Auf, ihr Hirten, lustig heunt
TTITLE5=Altes Christnachtlied
TTITLE6=Laufet, ihr Hirten
TTITLE7=Wiegenlied zur Christnacht (E. L. Uray)
TTITLE8=Es wird schon glei dumpa
TTITLE9=Liebreiches Kindelein
TTITLE10=O gnadenreiche Zeit
TTITLE11=Mei Jogl, i muaﬂ dir hiatz
TTITLE12=Jesulein
TTITLE13=Auf, auf, es kommt der Tag
EXTD=
EXTT0=
EXTT1=
EXTT2=
EXTT3=
EXTT4=
EXTT5=
EXTT6=
EXTT7=
EXTT8=
EXTT9=
EXTT10=
EXTT11=
EXTT12=
EXTT13=
PLAYORDER=
